<svg xmlns="http://www.w3.org/2000/svg" viewBox="0 0 24 24" height="24" width="24"><title>interface-essential-bookmark_1</title><g><path d="m14.857499999999998 8.0025 0 -4.5675 -1.1400000000000001 0 0 19.424999999999997 1.1400000000000001 0 0 -13.71 6.855 0 0 -6.862500000000001 -1.1400000000000001 0 0 5.715 -5.715 0z" fill="#000000" stroke-width="1"></path><path d="M19.4325 1.1475h1.1400000000000001v1.1400000000000001h-1.1400000000000001Z" fill="#000000" stroke-width="1"></path><path d="M14.857499999999998 2.2874999999999996h1.1400000000000001v1.1475h-1.1400000000000001Z" fill="#000000" stroke-width="1"></path><path d="M12.57 22.86h1.1475V24h-1.1475Z" fill="#000000" stroke-width="1"></path><path d="M11.43 21.72h1.1400000000000001v1.1400000000000001h-1.1400000000000001Z" fill="#000000" stroke-width="1"></path><path d="M10.290000000000001 20.572499999999998h1.1400000000000001v1.1475h-1.1400000000000001Z" fill="#000000" stroke-width="1"></path><path d="m11.43 6.862500000000001 -2.2874999999999996 0 0 1.1400000000000001 -1.1400000000000001 0 0 -1.1400000000000001 -2.2874999999999996 0 0 1.1400000000000001 -1.1400000000000001 0 0 2.2874999999999996 1.1400000000000001 0 0 1.1400000000000001 1.1400000000000001 0 0 1.1475 1.1475 0 0 1.1400000000000001 1.1400000000000001 0 0 -1.1400000000000001 1.1475 0 0 -1.1475 1.1400000000000001 0 0 -1.1400000000000001 1.1400000000000001 0 0 -2.2874999999999996 -1.1400000000000001 0 0 -1.1400000000000001z" fill="#000000" stroke-width="1"></path><path d="M9.1425 19.4325h1.1475v1.1400000000000001h-1.1475Z" fill="#000000" stroke-width="1"></path><path d="M8.0025 18.2925h1.1400000000000001v1.1400000000000001h-1.1400000000000001Z" fill="#000000" stroke-width="1"></path><path d="M6.855 19.4325h1.1475v1.1400000000000001H6.855Z" fill="#000000" stroke-width="1"></path><path d="m5.715 1.1475 10.2825 0 0 1.1400000000000001 1.1475 0 0 -1.1400000000000001 2.2874999999999996 0 0 -1.1475L5.715 0l0 1.1475z" fill="#000000" stroke-width="1"></path><path d="M5.715 20.572499999999998h1.1400000000000001v1.1475H5.715Z" fill="#000000" stroke-width="1"></path><path d="M4.574999999999999 21.72h1.1400000000000001v1.1400000000000001H4.574999999999999Z" fill="#000000" stroke-width="1"></path><path d="M4.574999999999999 1.1475h1.1400000000000001v1.1400000000000001H4.574999999999999Z" fill="#000000" stroke-width="1"></path><path d="M3.4275 22.86H4.574999999999999V24H3.4275Z" fill="#000000" stroke-width="1"></path><path d="M3.4275 2.2874999999999996H4.574999999999999v1.1475H3.4275Z" fill="#000000" stroke-width="1"></path><path d="M2.2874999999999996 3.435h1.1400000000000001v19.424999999999997H2.2874999999999996Z" fill="#000000" stroke-width="1"></path></g></svg>